<svg width="400" height="300" viewBox="0 0 400 300" xmlns="http://www.w3.org/2000/svg">
  <!-- Orange Circle Background -->
  <circle cx="100" cy="150" r="80" fill="#FF4500" stroke="none"/>

  <!-- Ganesha Silhouette -->
  <g transform="translate(50, 100)">
    <!-- Head -->
    <path d="M50 20 C70 15, 85 25, 90 45 C85 65, 70 75, 50 70 C30 75, 15 65, 10 45 C15 25, 30 15, 50 20 Z" fill="#000"/>

    <!-- Trunk -->
    <path d="M45 45 C40 50, 35 55, 30 65 C25 75, 20 85, 25 90 C30 85, 35 80, 40 75 C45 70, 50 65, 45 45 Z" fill="#000"/>

    <!-- Ears -->
    <path d="M20 35 C15 30, 10 35, 15 45 C20 50, 25 45, 20 35 Z" fill="#000"/>
    <path d="M80 35 C85 30, 90 35, 85 45 C80 50, 75 45, 80 35 Z" fill="#000"/>

    <!-- Crown/Hair -->
    <path d="M30 15 C40 10, 50 5, 60 10 C70 15, 75 20, 70 25 C60 20, 50 15, 40 20 C35 18, 30 15, 30 15 Z" fill="#000"/>
  </g>

  <!-- Devanagari Text: विघ्नहर्ता -->
  <g transform="translate(180, 120)" fill="#000" font-family="serif" font-size="48" font-weight="bold">
    <text x="0" y="0">विघ्नहर्ता</text>
  </g>
</svg>
